<svg xmlns="http://www.w3.org/2000/svg" width="24" height="24" viewBox="0 0 24 24">
  <title>Asset 22</title>
  <g>
    <rect width="24" height="24" opacity="0"/>
    <path d="M21,10.85v8.87a1.543,1.543,0,0,1-.13.77.991.991,0,0,1-.38.38,1.543,1.543,0,0,1-.77.13H15.28a1.543,1.543,0,0,1-.77-.13.991.991,0,0,1-.38-.38,1.543,1.543,0,0,1-.13-.77V15.28a1.543,1.543,0,0,0-.13-.77.991.991,0,0,0-.38-.38,1.543,1.543,0,0,0-.77-.13H11.28a1.543,1.543,0,0,0-.77.13.991.991,0,0,0-.38.38,1.543,1.543,0,0,0-.13.77v4.44a1.543,1.543,0,0,1-.13.77.991.991,0,0,1-.38.38,1.543,1.543,0,0,1-.77.13H4.28a1.543,1.543,0,0,1-.77-.13.991.991,0,0,1-.38-.38A1.543,1.543,0,0,1,3,19.72V11.05a5.525,5.525,0,0,1,.12-1.46,2.942,2.942,0,0,1,.41-.88l.1-.13a7.17,7.17,0,0,1,.94-.89L11.16,2.2a1.506,1.506,0,0,1,.6-.36.787.787,0,0,1,.48,0,1.506,1.506,0,0,1,.6.36l1.5,1.25a5.945,5.945,0,0,1-3.19,1.96,1.2,1.2,0,0,0,0,2.33,6.03,6.03,0,0,1,4.46,4.45,1.18,1.18,0,0,0,1.16.92,1.2,1.2,0,0,0,1.16-.92A5.95,5.95,0,0,1,20.4,8.62c.02.03.05.06.07.09a2.942,2.942,0,0,1,.41.88A4.773,4.773,0,0,1,21,10.85Z"/>
    <path d="M22.148,6.762a7.008,7.008,0,0,0-5.194,5.2.192.192,0,0,1-.376,0,7.008,7.008,0,0,0-5.194-5.2.191.191,0,0,1,0-.375,7.008,7.008,0,0,0,5.194-5.195.192.192,0,0,1,.376,0,7.008,7.008,0,0,0,5.194,5.195A.191.191,0,0,1,22.148,6.762Z"/>
  </g>
</svg>
