<svg xmlns="http://www.w3.org/2000/svg" width="167" height="37" viewBox="0 0 167 37">
  <title>white 1</title>
  <g>
    <rect width="167" height="37" opacity="0"/>
    <path d="M36.238,25.707a6.814,6.814,0,0,1-2.774-1.841A6.041,6.041,0,0,1,32,20.62v-.1c0-.172.1-.259.307-.259h2.408a.371.371,0,0,1,.378.284,3.775,3.775,0,0,0,1.723,2.419,5.654,5.654,0,0,0,2.9.743,4.413,4.413,0,0,0,2.6-.684A2.326,2.326,0,0,0,43.285,21a2.117,2.117,0,0,0-.6-1.582,3.831,3.831,0,0,0-1.5-.886c-.6-.2-1.425-.413-2.479-.648a24.96,24.96,0,0,1-3.188-.874,5,5,0,0,1-2.089-1.44,4,4,0,0,1-.862-2.714,4.829,4.829,0,0,1,.8-2.8,5,5,0,0,1,2.208-1.771,8.054,8.054,0,0,1,3.2-.6,7.9,7.9,0,0,1,4.52,1.3,5.747,5.747,0,0,1,2.421,3.849v.094c0,.173-.1.26-.284.26H43.072a.37.37,0,0,1-.378-.283,3.256,3.256,0,0,0-1.44-1.995,4.748,4.748,0,0,0-2.526-.65,3.885,3.885,0,0,0-2.313.614,2.006,2.006,0,0,0-.85,1.724,1.815,1.815,0,0,0,.555,1.392,3.626,3.626,0,0,0,1.4.791q.85.272,2.314.6a24.145,24.145,0,0,1,3.352.933,5.274,5.274,0,0,1,2.184,1.558,4.4,4.4,0,0,1,.909,2.938,4.98,4.98,0,0,1-1.735,4,7.306,7.306,0,0,1-4.875,1.476A10.113,10.113,0,0,1,36.238,25.707Z"/>
    <path d="M51.949,25.979a.4.4,0,0,1-.379-.283L47.793,13.16a.254.254,0,0,1-.023-.117.223.223,0,0,1,.094-.189.339.339,0,0,1,.212-.071h2.291a.348.348,0,0,1,.377.283l2.148,7.955c.047.174.118.26.213.26s.165-.078.213-.236L55.8,13.066a.348.348,0,0,1,.377-.283h1.842a.349.349,0,0,1,.378.283l2.5,7.955c.047.158.11.236.189.236.095,0,.165-.078.212-.236l2.2-7.955a.348.348,0,0,1,.378-.283h2.266a.289.289,0,0,1,.259.105.313.313,0,0,1,.024.272L62.571,25.719a.329.329,0,0,1-.354.26h-2.03a.35.35,0,0,1-.378-.283l-2.5-8.31c-.015-.157-.078-.236-.188-.236-.095,0-.165.079-.212.236l-2.55,8.31a.35.35,0,0,1-.378.283Z"/>
    <path d="M68.627,10.6a1.658,1.658,0,0,1,0-2.432,1.971,1.971,0,0,1,2.585,0,1.684,1.684,0,0,1,0,2.432,1.968,1.968,0,0,1-2.585,0Zm.224,15.38a.292.292,0,0,1-.33-.33V13.113a.34.34,0,0,1,.083-.236.308.308,0,0,1,.247-.094h2.125a.31.31,0,0,1,.247.094.34.34,0,0,1,.083.236V25.649a.292.292,0,0,1-.33.33Z"/>
    <path d="M75.792,25.979a.292.292,0,0,1-.331-.33V15.4a.321.321,0,0,0-.33-.331H73.714a.292.292,0,0,1-.33-.33V13.113a.34.34,0,0,1,.083-.236.308.308,0,0,1,.247-.094h1.417a.344.344,0,0,0,.236-.083.314.314,0,0,0,.094-.248V11.413a3.416,3.416,0,0,1,.909-2.561A3.62,3.62,0,0,1,79,7.967h1.559a.292.292,0,0,1,.33.33V9.926a.342.342,0,0,1-.083.236.31.31,0,0,1-.247.094h-.9q-1.4,0-1.394,1.559v.637a.292.292,0,0,0,.331.331h1.96a.31.31,0,0,1,.247.094.34.34,0,0,1,.083.236v1.629a.292.292,0,0,1-.33.33H78.6a.315.315,0,0,0-.248.094.349.349,0,0,0-.083.237V25.649a.308.308,0,0,1-.094.247.342.342,0,0,1-.236.083Z"/>
    <path d="M87.051,25.979a3.336,3.336,0,0,1-2.313-.708,3.035,3.035,0,0,1-.779-2.338V15.426a.292.292,0,0,0-.331-.33H82.306a.292.292,0,0,1-.33-.33V13.113a.34.34,0,0,1,.083-.236.308.308,0,0,1,.247-.094h1.322a.293.293,0,0,0,.331-.331v-3a.292.292,0,0,1,.331-.33h2.124a.292.292,0,0,1,.331.33v3a.311.311,0,0,0,.094.248.342.342,0,0,0,.236.083h2.031a.311.311,0,0,1,.247.094.34.34,0,0,1,.083.236v1.653a.292.292,0,0,1-.33.33H87.075a.347.347,0,0,0-.236.083.311.311,0,0,0-.094.247v6.728a2.1,2.1,0,0,0,.236,1.122q.236.366,1.039.366h1.062a.292.292,0,0,1,.33.33v1.677a.292.292,0,0,1-.33.33Z"/>
    <path d="M98.689,25.979a.338.338,0,0,1-.235-.083.309.309,0,0,1-.095-.247V8.3a.312.312,0,0,1,.095-.248.342.342,0,0,1,.235-.082h2.338a.292.292,0,0,1,.33.33v14.66a.292.292,0,0,0,.331.331h7.129a.292.292,0,0,1,.33.33v2.031a.292.292,0,0,1-.33.33Z"/>
    <path d="M111.072,10.6a1.656,1.656,0,0,1,0-2.432,1.969,1.969,0,0,1,2.584,0,1.682,1.682,0,0,1,0,2.432,1.966,1.966,0,0,1-2.584,0Zm.223,15.38a.292.292,0,0,1-.33-.33V13.113a.34.34,0,0,1,.083-.236.31.31,0,0,1,.247-.094h2.125a.313.313,0,0,1,.248.094.344.344,0,0,1,.082.236V25.649a.292.292,0,0,1-.33.33Z"/>
    <path d="M120.763,25.979a.383.383,0,0,1-.4-.26l-4.627-12.535a.258.258,0,0,1-.024-.118.277.277,0,0,1,.082-.2.305.305,0,0,1,.225-.082h2.313a.4.4,0,0,1,.378.283l2.668,7.885c.047.142.118.212.213.212s.164-.07.211-.212l2.715-7.885a.349.349,0,0,1,.378-.283h2.29a.275.275,0,0,1,.259.118.341.341,0,0,1,.024.283l-4.65,12.535a.392.392,0,0,1-.378.26Z"/>
    <path d="M129.579,10.6a1.658,1.658,0,0,1,0-2.432,1.971,1.971,0,0,1,2.585,0,1.682,1.682,0,0,1,0,2.432,1.968,1.968,0,0,1-2.585,0Zm.224,15.38a.292.292,0,0,1-.33-.33V13.113a.34.34,0,0,1,.083-.236.308.308,0,0,1,.247-.094h2.125a.313.313,0,0,1,.248.094.344.344,0,0,1,.082.236V25.649a.292.292,0,0,1-.33.33Z"/>
    <path d="M135.634,25.979a.292.292,0,0,1-.331-.33V13.113a.345.345,0,0,1,.083-.236.312.312,0,0,1,.248-.094h2.124a.313.313,0,0,1,.248.094.345.345,0,0,1,.083.236v.873c0,.174.047.26.142.26a.389.389,0,0,0,.236-.142,4.667,4.667,0,0,1,1.546-1.2,4.239,4.239,0,0,1,1.759-.354q2.973,0,4.036,2.148a4.6,4.6,0,0,1,.5,1.582,17.624,17.624,0,0,1,.094,1.982v7.39a.312.312,0,0,1-.094.247.342.342,0,0,1-.236.083H143.92a.34.34,0,0,1-.236-.083.308.308,0,0,1-.094-.247v-7.39a7.738,7.738,0,0,0-.154-1.7,2.224,2.224,0,0,0-.508-1.039,2.284,2.284,0,0,0-1.794-.638,2.636,2.636,0,0,0-2.149.851,3.319,3.319,0,0,0-.684,1.44,11.125,11.125,0,0,0-.212,2.455v6.02a.292.292,0,0,1-.331.33Z"/>
    <path d="M151.45,30.158a4.289,4.289,0,0,1-2.1-3v-.094c0-.173.094-.26.283-.26H151.8a.4.4,0,0,1,.378.26,2.512,2.512,0,0,0,1.109,1.322,4.086,4.086,0,0,0,2.007.425,3.522,3.522,0,0,0,2.514-.779,2.834,2.834,0,0,0,.814-2.149v-1.3c0-.173-.047-.259-.141-.259a.386.386,0,0,0-.236.141,4.679,4.679,0,0,1-1.6,1.228,4.89,4.89,0,0,1-1.936.354,5.451,5.451,0,0,1-3.046-.862,5.714,5.714,0,0,1-2.053-2.4,7.959,7.959,0,0,1-.732-3.47,8.1,8.1,0,0,1,.732-3.506,5.706,5.706,0,0,1,2.053-2.408,5.416,5.416,0,0,1,3.022-.861,5.02,5.02,0,0,1,1.971.354,4.524,4.524,0,0,1,1.594,1.2.383.383,0,0,0,.236.142c.094,0,.141-.07.141-.213v-.92a.34.34,0,0,1,.083-.236.312.312,0,0,1,.248-.094h2.124a.316.316,0,0,1,.249.094.349.349,0,0,1,.082.236V25.247q0,3.164-1.617,4.486a6.883,6.883,0,0,1-4.473,1.322A7.919,7.919,0,0,1,151.45,30.158Zm5.7-7.083a3.727,3.727,0,0,0,1.3-1.546,5.182,5.182,0,0,0,.46-2.231,5.108,5.108,0,0,0-.471-2.219,3.843,3.843,0,0,0-1.3-1.558,3.256,3.256,0,0,0-1.888-.566,3.132,3.132,0,0,0-2.585,1.239,4.845,4.845,0,0,0-.98,3.1,4.833,4.833,0,0,0,.98,3.116,3.144,3.144,0,0,0,2.585,1.228A3.313,3.313,0,0,0,157.151,23.075Z"/>
    <path d="M24.074,15.637v8.87a1.543,1.543,0,0,1-.13.77.991.991,0,0,1-.38.38,1.543,1.543,0,0,1-.77.13h-4.44a1.543,1.543,0,0,1-.77-.13.991.991,0,0,1-.38-.38,1.543,1.543,0,0,1-.13-.77v-4.44a1.543,1.543,0,0,0-.13-.77.991.991,0,0,0-.38-.38,1.543,1.543,0,0,0-.77-.13h-1.44a1.543,1.543,0,0,0-.77.13.991.991,0,0,0-.38.38,1.543,1.543,0,0,0-.13.77v4.44a1.543,1.543,0,0,1-.13.77.991.991,0,0,1-.38.38,1.543,1.543,0,0,1-.77.13H7.354a1.543,1.543,0,0,1-.77-.13.991.991,0,0,1-.38-.38,1.543,1.543,0,0,1-.13-.77v-8.67a5.525,5.525,0,0,1,.12-1.46,2.942,2.942,0,0,1,.41-.88l.1-.13a7.17,7.17,0,0,1,.94-.89l6.59-5.49a1.506,1.506,0,0,1,.6-.36.787.787,0,0,1,.48,0,1.506,1.506,0,0,1,.6.36l1.5,1.25a5.945,5.945,0,0,1-3.19,1.96,1.2,1.2,0,0,0,0,2.33,6.03,6.03,0,0,1,4.46,4.45,1.18,1.18,0,0,0,1.16.92,1.2,1.2,0,0,0,1.16-.92,5.95,5.95,0,0,1,2.47-3.57c.02.03.05.06.07.09a2.942,2.942,0,0,1,.41.88A4.773,4.773,0,0,1,24.074,15.637Z"/>
    <path d="M25.223,11.549a7.008,7.008,0,0,0-5.195,5.2.191.191,0,0,1-.375,0,7.008,7.008,0,0,0-5.195-5.195.191.191,0,0,1,0-.375,7.008,7.008,0,0,0,5.195-5.195.191.191,0,0,1,.375,0,7.008,7.008,0,0,0,5.2,5.195A.191.191,0,0,1,25.223,11.549Z"/>
  </g>
</svg>
